<svg xmlns="http://www.w3.org/2000/svg" width="86" height="86" viewBox="0 0 86 86">
  <g fill="none" fill-rule="evenodd">
    <rect width="86" height="86" fill="#B4A987" fill-opacity=".15" rx="43"/>
    <path fill="#A89868" d="M43,28 C35.2682667,28 29,34.716 29,43 C29,51.284 35.2682667,58 43,58 C50.7317333,58 57,51.284 57,43 C57,34.716 50.7317333,28 43,28 L43,28 Z M43,56 C36.3098667,56 30.8666667,50.168 30.8666667,43 C30.8666667,35.832 36.3098667,30 43,30 C49.6901333,30 55.1333333,35.832 55.1333333,43 C55.1333333,50.168 49.6901333,56 43,56 L43,56 Z M44.5997333,36 C46.2909333,36 47.6666667,37.346 47.6666667,39 C47.6666667,39.552 48.0848,40 48.6,40 C49.1152,40 49.5333333,39.552 49.5333333,39 C49.5333333,36.242 47.3194667,34 44.5997333,34 L43.9333333,34 L43.9333333,33 C43.9333333,32.448 43.5152,32 43,32 C42.4848,32 42.0666667,32.448 42.0666667,33 L42.0666667,34 L41.4002667,34 C38.6805333,34 36.4666667,36.242 36.4666667,39 C36.4666667,41.758 38.6805333,44 41.4002667,44 L42.0666667,44 L42.0666667,50 L41.4002667,50 C39.7090667,50 38.3333333,48.654 38.3333333,47 C38.3333333,46.448 37.9152,46 37.4,46 C36.8848,46 36.4666667,46.448 36.4666667,47 C36.4666667,49.758 38.6805333,52 41.4002667,52 L42.0666667,52 L42.0666667,53 C42.0666667,53.552 42.4848,54 43,54 C43.5152,54 43.9333333,53.552 43.9333333,53 L43.9333333,52 L44.5997333,52 C47.3194667,52 49.5333333,49.758 49.5333333,47 C49.5333333,44.242 47.3194667,42 44.5997333,42 L43.9333333,42 L43.9333333,36 L44.5997333,36 L44.5997333,36 Z M44.5997333,44 C46.2909333,44 47.6666667,45.346 47.6666667,47 C47.6666667,48.654 46.2909333,50 44.5997333,50 L43.9333333,50 L43.9333333,44 L44.5997333,44 L44.5997333,44 Z M42.0666667,42 L41.4002667,42 C39.7090667,42 38.3333333,40.654 38.3333333,39 C38.3333333,37.346 39.7090667,36 41.4002667,36 L42.0666667,36 L42.0666667,42 L42.0666667,42 Z"/>
  </g>
</svg>
