<svg xmlns="http://www.w3.org/2000/svg" width="86" height="86" viewBox="0 0 86 86">
  <g fill="none" fill-rule="evenodd">
    <rect width="86" height="86" fill="#B4A987" fill-opacity=".15" rx="43"/>
    <path fill="#A89868" d="M27.89675,4.921 C27.67625,4.20875 27.03575,3.682 26.25,3.682 L24.5,3.682 L24.5,5.432 L24.5,6.398 C24.5,7.84525 23.32225,9.023 21.875,9.023 C20.42775,9.023 19.25,7.84525 19.25,6.398 L19.25,5.432 L19.25,3.682 L8.74125,3.682 L8.74125,5.432 L8.74125,6.398 C8.74125,7.84525 7.5635,9.023 6.11625,9.023 C4.669,9.023 3.49125,7.84525 3.49125,6.398 L3.49125,5.432 L3.49125,3.682 L1.75,3.682 C0.96425,3.682 0.32375,4.20875 0.10325,4.921 L0,4.921 L0,5.432 L0,10.88325 L0,26.25 C0,27.216 0.784,28 1.75,28 L26.25,28 C27.216,28 28,27.216 28,26.25 L28,10.88325 L28,5.432 L28,4.921 L27.89675,4.921 L27.89675,4.921 Z M26.25,26.25 L1.75,26.25 L1.75,12.25 L26.25,12.25 L26.25,26.25 L26.25,26.25 Z M6.11625,7.273 C6.59925,7.273 6.99125,6.881 6.99125,6.398 L6.99125,0.875 C6.99125,0.392 6.59925,0 6.11625,0 C5.63325,0 5.24125,0.392 5.24125,0.875 L5.24125,6.398 C5.24125,6.881 5.63325,7.273 6.11625,7.273 L6.11625,7.273 Z M21.875,7.273 C22.358,7.273 22.75,6.881 22.75,6.398 L22.75,0.875 C22.75,0.392 22.358,0 21.875,0 C21.392,0 21,0.392 21,0.875 L21,6.398 C21,6.881 21.392,7.273 21.875,7.273 L21.875,7.273 Z" transform="translate(29 29)"/>
  </g>
</svg>
