<svg xmlns="http://www.w3.org/2000/svg" width="31" height="30" viewBox="0 0 31 30">
  <path fill="#000000" fill-rule="evenodd" d="M15.066,0.134 C11.244,0.134 7.422,1.592 4.506,4.508 C-1.326,10.34 -1.326,19.796 4.506,25.626 C7.424,28.542 11.244,30 15.066,30 C18.888,30 22.71,28.542 25.626,25.626 C31.458,19.794 31.458,10.338 25.626,4.508 C22.71,1.592 18.888,0.134 15.066,0.134 L15.066,0.134 Z M24.212,24.212 C21.77,26.654 18.522,28 15.066,28 C11.612,28 8.364,26.654 5.92,24.212 C3.478,21.77 2.132,18.522 2.132,15.066 C2.132,11.61 3.478,8.364 5.92,5.92 C8.362,3.478 11.61,2.132 15.066,2.132 C18.52,2.132 21.768,3.478 24.212,5.92 C26.656,8.362 28,11.612 28,15.066 C28,18.52 26.654,21.77 24.212,24.212 L24.212,24.212 Z M21,14 L16,14 L16,6.986 C16,6.434 15.552,5.986 15,5.986 C14.448,5.986 14,6.434 14,6.986 L14,14.994 L14,14.996 L14,15 C14,15.552 14.448,16 15,16 L21,16 C21.552,16 22,15.552 22,15 C22,14.448 21.552,14 21,14 L21,14 Z"/>
</svg>
