<svg xmlns="http://www.w3.org/2000/svg" width="86" height="86" viewBox="0 0 86 86">
  <g fill="none" fill-rule="evenodd">
    <rect width="86" height="86" fill="#B4A987" fill-opacity=".15" rx="43"/>
    <path fill="#A89868" d="M27.68025,12.9978333 C27.588875,12.9978333 27.499625,12.9978333 27.4125,13 C27.55275,12.2871667 27.625,11.5591667 27.625,10.8333333 C27.625,4.85983333 22.858625,0 17,0 C11.145625,0 6.375,4.81216667 6.368625,10.7228333 C6.368625,10.725 6.385625,10.9416667 6.385625,10.9416667 L6.385625,10.9416667 C2.7455,11.4725 0,14.6856667 0,18.4166667 C0,22.1996667 2.67325,25.454 6.375,26 L11.6875,26 C12.274,26 12.75,25.5146667 12.75,24.9166667 C12.75,24.3186667 12.274,23.8333333 11.6875,23.8333333 L6.530125,23.8441667 C4.060875,23.4736667 2.125,21.0881667 2.125,18.4166667 C2.125,15.756 4.08425,13.4658333 6.68525,13.0866667 L7.599,12.9523333 C8.12175,12.8765 8.510625,12.4193333 8.510625,11.8798333 L8.493625,10.7271667 C8.5,6.006 12.314375,2.16666667 17,2.16666667 C21.68775,2.16666667 25.5,6.05366667 25.5,10.8333333 C25.5,11.4205 25.442625,12.012 25.32575,12.5861667 L25.04525,13.9641667 C24.975125,14.3086667 25.075,14.664 25.30875,14.9218333 C25.5425,15.1775 25.87825,15.3096667 26.22675,15.2555 C26.250125,15.2533333 26.91525,15.1645 27.68025,15.1645 C29.994375,15.1645 31.875,17.108 31.875,19.5 C31.875,21.8898333 29.968875,23.8333333 27.625,23.8333333 L20.1875,23.8333333 C17.2125,23.8333333 17.010625,22.0155 17,21.6666667 L17,14.4776667 L19.513875,17.0386667 C19.92825,17.4611667 20.601875,17.4611667 21.01625,17.0386667 C21.430625,16.6161667 21.430625,15.9293333 21.01625,15.5068333 L16.74075,11.1496667 C16.5325,10.9373333 16.258375,10.8333333 15.98425,10.8333333 C15.96725,10.8333333 15.9545,10.8246667 15.9375,10.8246667 C15.6315,10.8246667 15.361625,10.959 15.16825,11.1691667 L10.8885,15.5285 C10.474125,15.951 10.474125,16.6378333 10.8885,17.0603333 C11.302875,17.4828333 11.9765,17.4828333 12.390875,17.0603333 L14.875,14.5296667 L14.875,21.6666667 C14.875,23.1638333 15.98425,26 20.1875,26 L27.625,26 C31.13975,26 34,23.0836667 34,19.5 C34,15.9163333 31.16525,12.9978333 27.68025,12.9978333 L27.68025,12.9978333 Z" transform="translate(26 30)"/>
  </g>
</svg>
