<svg xmlns="http://www.w3.org/2000/svg" width="86" height="86" viewBox="0 0 86 86">
  <g fill="none" fill-rule="evenodd">
    <rect width="86" height="86" fill="#B4A987" fill-opacity=".15" rx="43"/>
    <path fill="#A89868" d="M1.71428571,28 L22.2857143,28 C23.232,28 24,27.216 24,26.25 L24,1.75 C24,0.784 23.232,0 22.2857143,0 L1.71428571,0 C0.768,0 0,0.784 0,1.75 L0,26.25 C0,27.216 0.768,28 1.71428571,28 L1.71428571,28 Z M1.71428571,1.75 L22.2857143,1.75 L22.2857143,26.25 L1.71428571,26.25 L1.71428571,1.75 L1.71428571,1.75 Z M18,5.25 L11.1428571,5.25 C10.6697143,5.25 10.2857143,5.642 10.2857143,6.125 C10.2857143,6.608 10.6697143,7 11.1428571,7 L18,7 C18.4731429,7 18.8571429,6.608 18.8571429,6.125 C18.8571429,5.642 18.4731429,5.25 18,5.25 L18,5.25 Z M18,10.5 L6,10.5 C5.52685714,10.5 5.14285714,10.892 5.14285714,11.375 C5.14285714,11.858 5.52685714,12.25 6,12.25 L18,12.25 C18.4731429,12.25 18.8571429,11.858 18.8571429,11.375 C18.8571429,10.892 18.4731429,10.5 18,10.5 L18,10.5 Z M18,15.75 L6,15.75 C5.52685714,15.75 5.14285714,16.142 5.14285714,16.625 C5.14285714,17.108 5.52685714,17.5 6,17.5 L18,17.5 C18.4731429,17.5 18.8571429,17.108 18.8571429,16.625 C18.8571429,16.142 18.4731429,15.75 18,15.75 L18,15.75 Z M18,21 L6,21 C5.52685714,21 5.14285714,21.392 5.14285714,21.875 C5.14285714,22.358 5.52685714,22.75 6,22.75 L18,22.75 C18.4731429,22.75 18.8571429,22.358 18.8571429,21.875 C18.8571429,21.392 18.4731429,21 18,21 L18,21 Z" transform="translate(31 29)"/>
  </g>
</svg>
