<svg xmlns="http://www.w3.org/2000/svg" width="86" height="86" viewBox="0 0 86 86">
  <g fill="none" fill-rule="evenodd">
    <rect width="86" height="86" fill="#B4A987" fill-opacity=".15" rx="43"/>
    <path fill="#A89868" d="M22.8461538,24.9230769 L2.07692308,24.9230769 L2.07692308,4.15384615 L17.3963077,4.15384615 L18.6923077,2.07692308 L2.07692308,2.07692308 C0.930461538,2.07692308 -1.77635684e-15,3.00738462 -1.77635684e-15,4.15384615 L-1.77635684e-15,24.9230769 C-1.77635684e-15,26.0695385 0.930461538,27 2.07692308,27 L22.8461538,27 C23.9926154,27 24.9230769,26.0695385 24.9230769,24.9230769 L24.9230769,11.2091538 L22.8461538,14.5384615 L22.8461538,24.9230769 L22.8461538,24.9230769 Z M26.3416154,0.236769231 C26.0965385,0.0768461538 25.8203077,0 25.5482308,0 C25.0746923,0 24.6094615,0.232615385 24.3311538,0.658384615 L13.041,16.9456154 L8.67323077,11.961 C8.08130769,11.4147692 7.16330769,11.4500769 6.61707692,12.0399231 C6.07084615,12.6297692 6.10823077,13.5498462 6.69807692,14.094 L11.9485385,20.0859231 C11.9817692,20.1399231 12.0336923,20.1814615 12.0752308,20.2313077 L12.2081538,20.3829231 C12.2247692,20.3974615 12.2455385,20.4016154 12.2621538,20.4161538 C12.3036923,20.4493846 12.3286154,20.4950769 12.3722308,20.5262308 C12.4615385,20.5843846 12.5591538,20.6217692 12.6567692,20.6570769 C12.6796154,20.6653846 12.6983077,20.6799231 12.7211538,20.6861538 C12.8665385,20.7339231 13.0181538,20.763 13.1676923,20.763 C13.1739231,20.763 13.1801538,20.7588462 13.1863846,20.7588462 C13.581,20.7609231 13.9735385,20.6155385 14.2622308,20.304 C14.3162308,20.2458462 14.337,20.1752308 14.3806154,20.1108462 C14.3826923,20.1087692 14.3847692,20.1066923 14.3868462,20.1046154 L26.7632308,2.24930769 C27.2014615,1.57846154 27.0145385,0.677076923 26.3416154,0.236769231 L26.3416154,0.236769231 Z" transform="translate(30 30)"/>
  </g>
</svg>
