<svg xmlns="http://www.w3.org/2000/svg" width="30" height="30" viewBox="0 0 30 30">
  <path fill="#000000" fill-rule="evenodd" d="M15,0 C6.716,0 0,6.716 0,15 C0,23.284 6.716,30 15,30 C23.284,30 30,23.284 30,15 C30,6.716 23.284,0 15,0 L15,0 Z M25.938,8 L22.958,8 C22.378,6.176 21.582,4.578 20.622,3.296 C22.798,4.346 24.64,5.98 25.938,8 L25.938,8 Z M16,8 L16,2.164 C17.89,2.722 19.732,4.818 20.866,8 L16,8 L16,8 Z M21.448,10 C21.73,11.224 21.912,12.564 21.97,14 L16,14 L16,10 L21.448,10 L21.448,10 Z M14,2.164 L14,8 L9.134,8 C10.268,4.818 12.11,2.722 14,2.164 L14,2.164 Z M14,10 L14,14 L8.03,14 C8.088,12.564 8.27,11.224 8.552,10 L14,10 L14,10 Z M6.03,14 L2.05,14 C2.158,12.594 2.48,11.246 3.002,10 L6.522,10 C6.254,11.266 6.086,12.604 6.03,14 L6.03,14 Z M6.03,16 C6.086,17.396 6.254,18.734 6.522,20 L3.002,20 C2.48,18.754 2.158,17.406 2.05,16 L6.03,16 L6.03,16 Z M8.03,16 L14,16 L14,20 L8.552,20 C8.27,18.776 8.088,17.436 8.03,16 L8.03,16 Z M14,22 L14,27.836 C12.11,27.278 10.268,25.182 9.134,22 L14,22 L14,22 Z M16,27.836 L16,22 L20.866,22 C19.732,25.182 17.89,27.278 16,27.836 L16,27.836 Z M16,20 L16,16 L21.97,16 C21.912,17.436 21.73,18.776 21.448,20 L16,20 L16,20 Z M23.97,16 L27.95,16 C27.842,17.406 27.52,18.754 26.998,20 L23.478,20 C23.746,18.734 23.914,17.396 23.97,16 L23.97,16 Z M23.97,14 C23.914,12.604 23.746,11.266 23.478,10 L26.998,10 C27.52,11.246 27.842,12.594 27.95,14 L23.97,14 L23.97,14 Z M9.378,3.296 C8.42,4.578 7.622,6.176 7.042,8 L4.062,8 C5.36,5.98 7.202,4.346 9.378,3.296 L9.378,3.296 Z M4.062,22 L7.042,22 C7.622,23.824 8.418,25.422 9.378,26.704 C7.202,25.654 5.36,24.02 4.062,22 L4.062,22 Z M20.622,26.704 C21.58,25.422 22.378,23.824 22.958,22 L25.938,22 C24.64,24.02 22.798,25.654 20.622,26.704 L20.622,26.704 Z"/>
</svg>
