<svg xmlns="http://www.w3.org/2000/svg" width="31" height="30"><path fill-rule="evenodd" d="M15.066.134a14.887 14.887 0 0 0-10.56 4.374c-5.832 5.832-5.832 15.288 0 21.118A14.89 14.89 0 0 0 15.066 30c3.822 0 7.644-1.458 10.56-4.374 5.832-5.832 5.832-15.288 0-21.118A14.887 14.887 0 0 0 15.066.134zm9.146 24.078A12.85 12.85 0 0 1 15.066 28a12.857 12.857 0 0 1-9.146-3.788 12.85 12.85 0 0 1-3.788-9.146c0-3.456 1.346-6.702 3.788-9.146a12.85 12.85 0 0 1 9.146-3.788c3.454 0 6.702 1.346 9.146 3.788A12.845 12.845 0 0 1 28 15.066c0 3.454-1.346 6.704-3.788 9.146zM21 14h-5V6.986a1 1 0 0 0-2 0V15a1 1 0 0 0 1 1h6a1 1 0 0 0 0-2z"/></svg>