<svg xmlns="http://www.w3.org/2000/svg" width="86" height="86"><g fill="none" fill-rule="evenodd"><rect width="86" height="86" fill="#B4A987" fill-opacity=".15" rx="43"/><path fill="#A89868" d="M32.714 57h20.572c.946 0 1.714-.784 1.714-1.75v-24.5c0-.966-.768-1.75-1.714-1.75H32.714c-.946 0-1.714.784-1.714 1.75v24.5c0 .966.768 1.75 1.714 1.75zm0-26.25h20.572v24.5H32.714v-24.5zM49 34.25h-6.857a.867.867 0 0 0-.857.875c0 .483.384.875.857.875H49a.867.867 0 0 0 .857-.875.867.867 0 0 0-.857-.875zm0 5.25H37a.867.867 0 0 0-.857.875c0 .483.384.875.857.875h12a.867.867 0 0 0 .857-.875A.867.867 0 0 0 49 39.5zm0 5.25H37a.867.867 0 0 0-.857.875c0 .483.384.875.857.875h12a.867.867 0 0 0 .857-.875.867.867 0 0 0-.857-.875zM49 50H37a.867.867 0 0 0-.857.875c0 .483.384.875.857.875h12a.867.867 0 0 0 .857-.875A.867.867 0 0 0 49 50z"/></g></svg>