<svg xmlns="http://www.w3.org/2000/svg" width="86" height="86"><g fill="none" fill-rule="evenodd"><rect width="86" height="86" fill="#B4A987" fill-opacity=".15" rx="43"/><path fill="#A89868" d="M52.846 54.923h-20.77v-20.77h15.32l1.296-2.076H32.077c-1.147 0-2.077.93-2.077 2.077v20.77C30 56.07 30.93 57 32.077 57h20.77c1.146 0 2.076-.93 2.076-2.077V41.21l-2.077 3.33v10.384zm3.496-24.686a1.45 1.45 0 0 0-2.01.421L43.04 46.946l-4.368-4.985a1.454 1.454 0 1 0-1.975 2.133l5.25 5.992c.034.054.086.095.127.145l.133.152c.017.014.038.019.054.033.042.033.067.08.11.11.09.058.187.096.285.131.023.008.041.023.064.03.146.047.297.076.447.076.006 0 .012-.004.018-.004a1.44 1.44 0 0 0 1.076-.455c.054-.058.075-.129.119-.193l.006-.006 12.376-17.856a1.455 1.455 0 0 0-.421-2.012z"/></g></svg>