<svg xmlns="http://www.w3.org/2000/svg" width="86" height="86"><g fill="none" fill-rule="evenodd"><rect width="86" height="86" fill="#B4A987" fill-opacity=".15" rx="43"/><path fill="#A89868" d="M43 28c-7.732 0-14 6.716-14 15 0 8.284 6.268 15 14 15s14-6.716 14-15c0-8.284-6.268-15-14-15zm0 28c-6.69 0-12.133-5.832-12.133-13S36.31 30 43 30c6.69 0 12.133 5.832 12.133 13S49.69 56 43 56zm1.6-20c1.69 0 3.067 1.346 3.067 3 0 .552.418 1 .933 1 .515 0 .933-.448.933-1 0-2.758-2.214-5-4.933-5h-.667v-1c0-.552-.418-1-.933-1-.515 0-.933.448-.933 1v1H41.4c-2.72 0-4.933 2.242-4.933 5s2.214 5 4.933 5h.667v6H41.4c-1.69 0-3.067-1.346-3.067-3 0-.552-.418-1-.933-1-.515 0-.933.448-.933 1 0 2.758 2.214 5 4.933 5h.667v1c0 .552.418 1 .933 1 .515 0 .933-.448.933-1v-1h.667c2.72 0 4.933-2.242 4.933-5s-2.214-5-4.933-5h-.667v-6h.667zm0 8c1.69 0 3.067 1.346 3.067 3s-1.376 3-3.067 3h-.667v-6h.667zm-2.533-2H41.4c-1.69 0-3.067-1.346-3.067-3s1.376-3 3.067-3h.667v6z"/></g></svg>