<svg xmlns="http://www.w3.org/2000/svg" width="86" height="86"><g fill="none" fill-rule="evenodd"><rect width="86" height="86" fill="#B4A987" fill-opacity=".15" rx="43"/><path fill="#A89868" d="M56.897 33.921c-.22-.712-.861-1.239-1.647-1.239H53.5v2.716a2.628 2.628 0 0 1-2.625 2.625 2.628 2.628 0 0 1-2.625-2.625v-2.716H37.741v2.716a2.628 2.628 0 0 1-2.625 2.625 2.628 2.628 0 0 1-2.625-2.625v-2.716H30.75c-.786 0-1.426.527-1.647 1.239H29V55.25c0 .966.784 1.75 1.75 1.75h24.5A1.75 1.75 0 0 0 57 55.25V33.921h-.103zM55.25 55.25h-24.5v-14h24.5v14zM35.116 36.273a.875.875 0 0 0 .875-.875v-5.523a.875.875 0 0 0-1.75 0v5.523c0 .483.392.875.875.875zm15.759 0a.875.875 0 0 0 .875-.875v-5.523a.875.875 0 0 0-1.75 0v5.523c0 .483.392.875.875.875z"/></g></svg>