<svg xmlns="http://www.w3.org/2000/svg" width="30" height="30"><path fill-rule="evenodd" d="M15 0C6.716 0 0 6.716 0 15c0 8.284 6.716 15 15 15 8.284 0 15-6.716 15-15 0-8.284-6.716-15-15-15zm0 28C7.832 28 2 22.168 2 15S7.832 2 15 2s13 5.832 13 13-5.832 13-13 13zm1.714-20C18.526 8 20 9.346 20 11a1 1 0 0 0 2 0c0-2.758-2.372-5-5.286-5H16V5a1 1 0 0 0-2 0v1h-.714C10.372 6 8 8.242 8 11s2.372 5 5.286 5H14v6h-.714C11.474 22 10 20.654 10 19a1 1 0 0 0-2 0c0 2.758 2.372 5 5.286 5H14v1a1 1 0 0 0 2 0v-1h.714C19.628 24 22 21.758 22 19s-2.372-5-5.286-5H16V8h.714zm0 8C18.526 16 20 17.346 20 19s-1.474 3-3.286 3H16v-6h.714zM14 14h-.714C11.474 14 10 12.654 10 11s1.474-3 3.286-3H14v6z"/></svg>