<svg xmlns="http://www.w3.org/2000/svg" width="86" height="86"><g fill="none" fill-rule="evenodd"><rect width="86" height="86" fill="#B4A987" fill-opacity=".15" rx="43"/><path fill="#A89868" d="M53.68 42.998c-.091 0-.18 0-.267.002.14-.713.212-1.44.212-2.167C53.625 34.86 48.859 30 43 30c-5.854 0-10.625 4.812-10.631 10.723l.017.219c-3.64.53-6.386 3.744-6.386 7.475 0 3.783 2.673 7.037 6.375 7.583h5.313c.586 0 1.062-.485 1.062-1.083s-.476-1.084-1.063-1.084l-5.157.011c-2.47-.37-4.405-2.756-4.405-5.427 0-2.661 1.96-4.951 4.56-5.33l.914-.135c.523-.075.912-.533.912-1.072l-.017-1.153c.006-4.721 3.82-8.56 8.506-8.56 4.688 0 8.5 3.887 8.5 8.666 0 .588-.057 1.179-.174 1.753l-.28 1.378c-.07.345.029.7.263.958.233.256.57.388.918.334.023-.003.688-.091 1.453-.091 2.314 0 4.195 1.943 4.195 4.335 0 2.39-1.906 4.333-4.25 4.333h-7.438c-2.974 0-3.176-1.817-3.187-2.166v-7.19l2.514 2.562a1.049 1.049 0 0 0 1.502 0 1.1 1.1 0 0 0 0-1.532l-4.275-4.357a1.054 1.054 0 0 0-.757-.317c-.017 0-.03-.008-.046-.008a1.04 1.04 0 0 0-.77.344l-4.28 4.36a1.1 1.1 0 0 0 0 1.531 1.049 1.049 0 0 0 1.503 0l2.484-2.53v7.137c0 1.497 1.11 4.333 5.313 4.333h7.437C57.14 56 60 53.084 60 49.5s-2.835-6.502-6.32-6.502z"/></g></svg>