<svg xmlns="http://www.w3.org/2000/svg" width="30" height="30"><path fill-rule="evenodd" d="M15 0C6.716 0 0 6.716 0 15c0 8.284 6.716 15 15 15 8.284 0 15-6.716 15-15 0-8.284-6.716-15-15-15zm10.938 8h-2.98c-.58-1.824-1.376-3.422-2.336-4.704A13.083 13.083 0 0 1 25.938 8zM16 8V2.164c1.89.558 3.732 2.654 4.866 5.836H16zm5.448 2c.282 1.224.464 2.564.522 4H16v-4h5.448zM14 2.164V8H9.134C10.268 4.818 12.11 2.722 14 2.164zM14 10v4H8.03c.058-1.436.24-2.776.522-4H14zm-7.97 4H2.05c.108-1.406.43-2.754.952-4h3.52a23.96 23.96 0 0 0-.492 4zm0 2a23.96 23.96 0 0 0 .492 4h-3.52a12.895 12.895 0 0 1-.952-4h3.98zm2 0H14v4H8.552a21.758 21.758 0 0 1-.522-4zM14 22v5.836c-1.89-.558-3.732-2.654-4.866-5.836H14zm2 5.836V22h4.866c-1.134 3.182-2.976 5.278-4.866 5.836zM16 20v-4h5.97a21.758 21.758 0 0 1-.522 4H16zm7.97-4h3.98a12.895 12.895 0 0 1-.952 4h-3.52a23.96 23.96 0 0 0 .492-4zm0-2a23.96 23.96 0 0 0-.492-4h3.52c.522 1.246.844 2.594.952 4h-3.98zM9.378 3.296C8.42 4.578 7.622 6.176 7.042 8h-2.98a13.083 13.083 0 0 1 5.316-4.704zM4.062 22h2.98c.58 1.824 1.376 3.422 2.336 4.704A13.083 13.083 0 0 1 4.062 22zm16.56 4.704c.958-1.282 1.756-2.88 2.336-4.704h2.98a13.083 13.083 0 0 1-5.316 4.704z"/></svg>